<?xml version="1.0" encoding="UTF-8"?>
<svg xmlns="http://www.w3.org/2000/svg" xmlns:xlink="http://www.w3.org/1999/xlink" width="360pt" height="360pt" viewBox="0 0 360 360" version="1.1">
<g id="surface11356">
<path style="fill-rule:nonzero;fill:rgb(72.941178%,87.843138%,74.117649%);fill-opacity:1;stroke-width:1;stroke-linecap:butt;stroke-linejoin:miter;stroke:rgb(36.862746%,61.176473%,46.27451%);stroke-opacity:1;stroke-miterlimit:10;" d="M 3.5 7.5 L 47.5 7.5 L 47.5 25.5 L 3.5 25.5 Z M 3.5 7.5 " transform="matrix(4.5,0,0,4.5,0,0)"/>
<path style=" stroke:none;fill-rule:nonzero;fill:rgb(36.862746%,61.176473%,46.27451%);fill-opacity:1;" d="M 36 54 L 76.5 54 L 76.5 94.5 L 36 94.5 Z M 36 54 "/>
<path style=" stroke:none;fill-rule:nonzero;fill:rgb(36.862746%,61.176473%,46.27451%);fill-opacity:1;" d="M 99 63 L 184.5 63 L 184.5 85.5 L 99 85.5 Z M 99 63 "/>
<path style="fill-rule:nonzero;fill:rgb(96.862745%,56.078434%,56.078434%);fill-opacity:1;stroke-width:1;stroke-linecap:butt;stroke-linejoin:miter;stroke:rgb(78.039217%,26.274511%,26.274511%);stroke-opacity:1;stroke-miterlimit:10;" d="M 12.5 31.5 L 56.5 31.5 L 56.5 49.5 L 12.5 49.5 Z M 12.5 31.5 " transform="matrix(4.5,0,0,4.5,0,0)"/>
<path style=" stroke:none;fill-rule:nonzero;fill:rgb(78.039217%,26.274511%,26.274511%);fill-opacity:1;" d="M 76.5 162 L 117 162 L 117 202.5 L 76.5 202.5 Z M 76.5 162 "/>
<path style=" stroke:none;fill-rule:nonzero;fill:rgb(78.039217%,26.274511%,26.274511%);fill-opacity:1;" d="M 139.5 171 L 225 171 L 225 193.5 L 139.5 193.5 Z M 139.5 171 "/>
<path style="fill-rule:nonzero;fill:rgb(96.078432%,80.784315%,52.156866%);fill-opacity:1;stroke-width:1;stroke-linecap:butt;stroke-linejoin:miter;stroke:rgb(72.941178%,60.784316%,28.235295%);stroke-opacity:1;stroke-miterlimit:10;" d="M 3.5 55.5 L 47.5 55.5 L 47.5 73.5 L 3.5 73.5 Z M 3.5 55.5 " transform="matrix(4.5,0,0,4.5,0,0)"/>
<path style=" stroke:none;fill-rule:nonzero;fill:rgb(72.941178%,60.784316%,28.235295%);fill-opacity:1;" d="M 36 270 L 76.5 270 L 76.5 310.5 L 36 310.5 Z M 36 270 "/>
<path style=" stroke:none;fill-rule:nonzero;fill:rgb(72.941178%,60.784316%,28.235295%);fill-opacity:1;" d="M 99 279 L 184.5 279 L 184.5 301.5 L 99 301.5 Z M 99 279 "/>
<path style="fill-rule:nonzero;fill:rgb(54.509807%,71.764708%,94.117647%);fill-opacity:1;stroke-width:1;stroke-linecap:butt;stroke-linejoin:miter;stroke:rgb(30.588236%,47.843137%,70.980394%);stroke-opacity:1;stroke-miterlimit:10;" d="M 68 15.5 L 58.5 15.5 L 58.5 11.102431 L 51.760417 17 L 58.5 22.897569 L 58.5 18.5 L 68 18.5 C 69.37934 18.5 70.5 19.62066 70.5 21 L 70.5 37.890625 C 70.5 38.778646 69.777778 39.5 68.890625 39.5 L 60.5 39.5 L 60.5 42.5 L 68.890625 42.5 C 71.43316 42.5 73.5 40.43316 73.5 37.890625 L 73.5 21 C 73.5 17.967882 71.032118 15.5 68 15.5 Z M 68 15.5 " transform="matrix(4.5,0,0,4.5,0,0)"/>
</g>
</svg>
