<?xml version="1.0" encoding="UTF-8"?>
<svg xmlns="http://www.w3.org/2000/svg" xmlns:xlink="http://www.w3.org/1999/xlink" width="360pt" height="360pt" viewBox="0 0 360 360" version="1.1">
<g id="surface9862">
<path style=" stroke:none;fill-rule:nonzero;fill:rgb(27.058825%,35.294119%,39.215687%);fill-opacity:1;" d="M 270 30 L 195 30 C 195 38.289062 188.289062 45 180 45 C 171.710938 45 165 38.289062 165 30 L 90 30 C 73.417969 30 60 43.417969 60 60 L 60 300 C 60 316.582031 73.417969 330 90 330 L 270 330 C 286.582031 330 300 316.582031 300 300 L 300 60 C 300 43.417969 286.582031 30 270 30 "/>
<path style=" stroke:none;fill-rule:nonzero;fill:rgb(100%,100%,100%);fill-opacity:1;" d="M 270 307.5 L 90 307.5 C 85.867188 307.5 82.5 304.132812 82.5 300 L 82.5 60 C 82.5 55.867188 85.867188 52.5 90 52.5 L 270 52.5 C 274.132812 52.5 277.5 55.867188 277.5 60 L 277.5 300 C 277.5 304.132812 274.132812 307.5 270 307.5 "/>
<path style=" stroke:none;fill-rule:nonzero;fill:rgb(56.470591%,64.313728%,68.235296%);fill-opacity:1;" d="M 195 30 C 195 38.289062 188.289062 45 180 45 C 171.710938 45 165 38.289062 165 30 L 112.5 30 L 112.5 60 C 112.5 68.289062 119.210938 75 127.5 75 L 232.5 75 C 240.789062 75 247.5 68.289062 247.5 60 L 247.5 30 Z M 195 30 "/>
<path style=" stroke:none;fill-rule:nonzero;fill:rgb(56.470591%,64.313728%,68.235296%);fill-opacity:1;" d="M 180 0 C 163.449219 0 150 13.449219 150 30 C 150 46.550781 163.449219 60 180 60 C 196.550781 60 210 46.550781 210 30 C 210 13.449219 196.550781 0 180 0 M 180 45 C 171.710938 45 165 38.289062 165 30 C 165 21.710938 171.710938 15 180 15 C 188.289062 15 195 21.710938 195 30 C 195 38.289062 188.289062 45 180 45 "/>
<path style=" stroke:none;fill-rule:nonzero;fill:rgb(26.274511%,62.7451%,27.843139%);fill-opacity:1;" d="M 173.910156 238.351562 L 114.058594 187.703125 L 133.441406 164.796875 L 171.089844 196.648438 L 225.203125 136.261719 L 247.5 156.328125 Z M 173.910156 238.351562 "/>
</g>
</svg>
